<?xml version="1.0" encoding="utf-8"?>
<!-- Generator: Adobe Illustrator 17.0.2, SVG Export Plug-In . SVG Version: 6.00 Build 0)  -->
<!DOCTYPE svg PUBLIC "-//W3C//DTD SVG 1.1//EN" "http://www.w3.org/Graphics/SVG/1.1/DTD/svg11.dtd">
<svg version="1.1" id="Layer_1" xmlns="http://www.w3.org/2000/svg" xmlns:xlink="http://www.w3.org/1999/xlink" x="0px" y="0px"
	 width="165px" height="125px" viewBox="0 0 165 125" enable-background="new 0 0 165 125" xml:space="preserve">
<g>
	<g>
		<path fill="#FFFFFF" d="M54.178,65.322c-2.937-1.203-10.102-7.806-12.61-12.028c4.407,12.062,6.548,35.896,6.438,44.881h12.905
			C60.277,79.277,56.039,69.504,54.178,65.322z"/>
	</g>
	<path fill="#FFFFFF" d="M0.141,8.414h14.105v76.937h23.21v12.824H0.141V8.414z"/>
	<path fill="#FFFFFF" d="M118.641,98.175h-14.232l-2.436-16.285h-17.31l-2.437,16.285H69.274L83.636,8.414h20.645L118.641,98.175z
		 M86.456,69.708h13.592l-6.797-45.393L86.456,69.708z"/>
	<path fill="#FFFFFF" d="M164.847,64.707v11.925c0,14.362-7.181,22.568-21.029,22.568c-13.849,0-21.029-8.207-21.029-22.568V29.957
		c0-14.362,7.18-22.569,21.029-22.569c13.848,0,21.029,8.207,21.029,22.569v8.719h-13.336V29.06c0-6.412-2.821-8.847-7.309-8.847
		c-4.487,0-7.308,2.436-7.308,8.847V77.53c0,6.412,2.821,8.72,7.308,8.72c4.488,0,7.309-2.308,7.309-8.72V64.707H164.847z"/>
	<path fill="#8DC227" d="M44.358,22.535C37.756,13.067,20.946,1.364,11.582,1.764c6.187,5.47,7.847,11.015,7.961,17.806
		c0.107,6.394,5.754,20.65,20.389,22.855c-0.834-6.902-5.708-17.14-8.834-22.838c13.128,13.216,12.715,28.873,12.715,28.873
		S50.959,32.005,44.358,22.535z"/>
	<path fill="#8DC227" d="M57.347,26.933c-9.184,12.529-0.099,34.898-0.099,34.898s-0.053-21.08,18.036-38.441
		c-4.39,7.567-11.276,21.187-12.619,30.446c19.763-2.496,27.82-21.498,28.168-30.1c0.367-9.133,2.778-16.541,11.279-23.703
		C89.527-0.805,66.534,14.403,57.347,26.933z"/>
	<rect x="0.141" y="107.228" fill="#8DC227" width="164.718" height="0.5"/>
	<g>
		<path fill="#8DC227" d="M0.998,124.925v-7.393c0-0.107,0.097-0.107,0.097-0.107h0.45c0,0,0.107,0,0.107,0.107v6.772h2.486
			c0.107,0,0.107,0.097,0.107,0.097v0.418c0,0,0,0.107-0.107,0.107H0.998z"/>
		<path fill="#8DC227" d="M9.912,119.707c0,0.021,0,2.947,0,2.947c0,1.307-0.6,2.347-2.132,2.347c-1.533,0-2.133-1.039-2.133-2.347
			c0,0,0-2.926,0-2.947c0-1.307,0.6-2.358,2.133-2.358C9.312,117.349,9.912,118.399,9.912,119.707z M6.301,119.707v2.947
			c0,1.2,0.568,1.725,1.479,1.725c0.911,0,1.479-0.525,1.479-1.725v-2.947c0-1.2-0.568-1.736-1.479-1.736
			C6.869,117.971,6.301,118.507,6.301,119.707z"/>
		<path fill="#8DC227" d="M15.869,117.532c0,0,0-0.107,0.107-0.107h0.439c0,0,0.107,0,0.107,0.107v7.286c0,0,0,0.107-0.107,0.107
			h-0.686c0,0-0.096,0-0.15-0.107l-2.808-6.611l0.054,6.611c0,0,0,0.107-0.107,0.107h-0.439c0,0-0.107,0-0.107-0.107v-7.286
			c0,0,0-0.107,0.107-0.107h0.686c0,0,0.096,0,0.15,0.107l2.808,6.611L15.869,117.532z"/>
		<path fill="#8DC227" d="M20.946,117.425c1.533,0,2.111,1.039,2.111,2.346v2.808c0,1.307-0.579,2.346-2.111,2.346h-2.057v-7.501
			H20.946z M19.543,118.046v6.258h1.403c0.911,0,1.458-0.525,1.458-1.725v-2.808c0-1.2-0.546-1.725-1.458-1.725H19.543z"/>
		<path fill="#8DC227" d="M29.474,119.707c0,0.021,0,2.947,0,2.947c0,1.307-0.6,2.347-2.132,2.347c-1.532,0-2.133-1.039-2.133-2.347
			c0,0,0-2.926,0-2.947c0-1.307,0.6-2.358,2.133-2.358C28.874,117.349,29.474,118.399,29.474,119.707z M25.863,119.707v2.947
			c0,1.2,0.568,1.725,1.479,1.725s1.479-0.525,1.479-1.725v-2.947c0-1.2-0.568-1.736-1.479-1.736S25.863,118.507,25.863,119.707z"/>
		<path fill="#8DC227" d="M35.431,117.532c0,0,0-0.107,0.107-0.107h0.439c0,0,0.107,0,0.107,0.107v7.286c0,0,0,0.107-0.107,0.107
			h-0.686c0,0-0.096,0-0.15-0.107l-2.808-6.611l0.054,6.611c0,0,0,0.107-0.107,0.107h-0.439c0,0-0.108,0-0.108-0.107v-7.286
			c0,0,0-0.107,0.108-0.107h0.686c0,0,0.096,0,0.15,0.107l2.808,6.611L35.431,117.532z"/>
		<path fill="#8DC227" d="M41,117.532c-0.032-0.086,0.01-0.107,0.053-0.107h0.515c0.032,0,0.086,0,0.118,0.107l1.735,4.371h0.107
			l1.554-4.371c0.032-0.107,0.086-0.107,0.118-0.107h0.514c0.043,0,0.086,0.021,0.054,0.107l-2.625,7.286
			c-0.032,0.107-0.086,0.107-0.118,0.107h-0.504c-0.042,0-0.086-0.021-0.053-0.107l0.793-2.197h-0.129c0,0-0.075,0-0.118-0.107
			L41,117.532z"/>
		<path fill="#8DC227" d="M51.607,119.707c0,0.021,0,2.947,0,2.947c0,1.307-0.6,2.347-2.132,2.347c-1.533,0-2.133-1.039-2.133-2.347
			c0,0,0-2.926,0-2.947c0-1.307,0.6-2.358,2.133-2.358C51.007,117.349,51.607,118.399,51.607,119.707z M47.996,119.707v2.947
			c0,1.2,0.568,1.725,1.479,1.725c0.911,0,1.479-0.525,1.479-1.725v-2.947c0-1.2-0.568-1.736-1.479-1.736
			C48.564,117.971,47.996,118.507,47.996,119.707z"/>
		<path fill="#8DC227" d="M53.706,122.278c0,0,0-4.725,0-4.747c0-0.107,0.107-0.107,0.107-0.107h0.45c0,0,0.096,0,0.096,0.107v4.747
			c0,1.436,0.546,2.1,1.457,2.1c0.911,0,1.458-0.664,1.458-2.1v-4.747c0-0.107,0.096-0.107,0.096-0.107h0.45
			c0,0,0.107,0,0.107,0.107c0,0.021,0,4.747,0,4.747c0,1.457-0.579,2.722-2.111,2.722C54.284,125,53.706,123.736,53.706,122.278z"/>
		<path fill="#8DC227" d="M62.18,118.046v6.772c0,0.107-0.097,0.107-0.097,0.107h-0.45c0,0-0.107,0-0.107-0.107v-6.772h-1.714
			c-0.107,0-0.107-0.096-0.107-0.096v-0.418c0,0,0-0.107,0.107-0.107h4.083c0.107,0,0.107,0.096,0.107,0.096v0.418
			c0,0,0,0.107-0.107,0.107H62.18z"/>
		<path fill="#8DC227" d="M66.593,124.818c0,0.107-0.096,0.107-0.096,0.107h-0.45c0,0-0.107,0-0.107-0.107v-7.286
			c0-0.107,0.096-0.107,0.096-0.107h0.45c0,0,0.107,0,0.107,0.107v3.193h2.947v-3.193c0-0.107,0.096-0.107,0.096-0.107h0.45
			c0,0,0.107,0,0.107,0.107v7.286c0,0.107-0.096,0.107-0.096,0.107h-0.45c0,0-0.107,0-0.107-0.107v-3.472h-2.947V124.818z"/>
		<path fill="#8DC227" d="M78.228,117.425c0,0,0.097,0,0.129,0.107l2.036,7.319c0.021,0.075-0.065,0.075-0.065,0.075h-0.525
			c-0.032,0-0.074-0.032-0.096-0.107l-0.772-2.711h-2.358l-0.792,2.711c-0.022,0.075-0.065,0.107-0.097,0.107h-0.524
			c0,0-0.086,0-0.065-0.075l2.068-7.319c0.032-0.107,0.117-0.107,0.117-0.107H78.228z M76.739,121.475h2.036l-0.9-3.429h-0.193
			L76.739,121.475z"/>
		<path fill="#8DC227" d="M84.452,117.425c1.533,0,2.111,1.039,2.111,2.346v2.808c0,1.307-0.578,2.346-2.111,2.346h-2.057v-7.501
			H84.452z M83.048,118.046v6.258h1.404c0.911,0,1.458-0.525,1.458-1.725v-2.808c0-1.2-0.547-1.725-1.458-1.725H83.048z"/>
		<path fill="#8DC227" d="M92.38,117.532c0.032-0.107,0.086-0.107,0.117-0.107h0.525c0,0,0.108,0,0.075,0.107l-1.822,7.286
			c-0.032,0.107-0.129,0.107-0.129,0.107h-0.953c0,0-0.097,0-0.118-0.107l-1.832-7.286c-0.032-0.107,0.075-0.107,0.075-0.107h0.482
			c0.032,0,0.085,0,0.117,0.107l1.715,6.836h0.107L92.38,117.532z"/>
		<path fill="#8DC227" d="M95.7,124.818c0,0.107-0.096,0.107-0.096,0.107h-0.45c0,0-0.108,0-0.108-0.107v-7.286
			c0-0.107,0.097-0.107,0.097-0.107h0.45c0,0,0.106,0,0.106,0.107V124.818z"/>
		<path fill="#8DC227" d="M100.961,121.325c0.632,0.333,0.974,0.954,0.974,1.65c0,1.147-0.771,2.025-2.142,2.025
			c-0.847,0-2.111-0.472-2.111-2.1c0-0.107,0.107-0.107,0.107-0.107h0.45c0,0,0.097,0,0.097,0.107c0,1.2,0.804,1.479,1.458,1.479
			c1.082,0,1.489-0.782,1.489-1.404c0-0.45-0.193-0.889-0.825-1.221l-1.64-0.836c-0.943-0.482-1.05-1.243-1.05-1.768
			c0-1.157,0.922-1.801,2.025-1.801c1.329,0,1.917,0.772,2.057,1.725c0.011,0.054,0,0.118-0.065,0.139l-0.418,0.107
			c-0.065,0.021-0.14-0.011-0.151-0.075c-0.085-0.782-0.557-1.243-1.424-1.243c-1.04,0-1.372,0.643-1.372,1.178
			c0,0.472,0.139,0.879,0.589,1.115L100.961,121.325z"/>
		<path fill="#8DC227" d="M108.085,119.707c0,0.021,0,2.947,0,2.947c0,1.307-0.6,2.347-2.133,2.347
			c-1.532,0-2.132-1.039-2.132-2.347c0,0,0-2.926,0-2.947c0-1.307,0.6-2.358,2.132-2.358
			C107.485,117.349,108.085,118.399,108.085,119.707z M104.474,119.707v2.947c0,1.2,0.567,1.725,1.478,1.725
			c0.911,0,1.479-0.525,1.479-1.725v-2.947c0-1.2-0.568-1.736-1.479-1.736C105.042,117.971,104.474,118.507,104.474,119.707z"/>
		<path fill="#8DC227" d="M111.008,124.818c0,0.107-0.096,0.107-0.096,0.107h-0.45c0,0-0.108,0-0.108-0.107v-7.393h1.512
			c1.768,0,2.389,0.9,2.389,2.025v0.225c0,1.072-0.418,1.779-1.393,2.047l0.954,1.939c0.236,0.407,0.472,0.675,0.783,0.675h0.107
			c0.108,0,0.108,0.107,0.108,0.107v0.364c0,0,0,0.118-0.108,0.118h-0.171c-0.579,0-0.911-0.321-1.361-1.104l-0.965-2.015h-1.2
			V124.818z M111.008,121.186h0.954c1.051,0,1.64-0.311,1.64-1.511v-0.225c0-0.986-0.589-1.404-1.683-1.404h-0.911V121.186z"/>
		<path fill="#8DC227" d="M115.872,117.532c-0.032-0.086,0.011-0.107,0.054-0.107h0.514c0.032,0,0.086,0,0.119,0.107l1.735,4.371
			h0.108l1.554-4.371c0.032-0.107,0.086-0.107,0.117-0.107h0.515c0.043,0,0.086,0.021,0.054,0.107l-2.626,7.286
			c-0.031,0.107-0.085,0.107-0.117,0.107h-0.504c-0.043,0-0.085-0.021-0.054-0.107l0.794-2.197h-0.129c0,0-0.074,0-0.117-0.107
			L115.872,117.532z"/>
		<path fill="#8DC227" d="M129.585,119.225l-0.419,0.107c-0.064,0.032-0.139-0.011-0.15-0.075c-0.086-0.783-0.557-1.286-1.425-1.286
			c-1.017,0-1.489,0.525-1.489,1.736v2.947c0,1.211,0.472,1.725,1.489,1.725c0.911,0,1.458-0.525,1.458-1.725
			c0-0.107,0.097-0.107,0.097-0.107h0.45c0,0,0.107,0,0.107,0.107c0,1.307-0.578,2.347-2.111,2.347
			c-1.414,0-2.142-0.975-2.142-2.347v-2.947c0-1.372,0.729-2.358,2.142-2.358c1.33,0,1.919,0.782,2.057,1.736
			C129.66,119.139,129.649,119.203,129.585,119.225z"/>
		<path fill="#8DC227" d="M135.96,119.707c0,0.021,0,2.947,0,2.947c0,1.307-0.6,2.347-2.133,2.347c-1.532,0-2.132-1.039-2.132-2.347
			c0,0,0-2.926,0-2.947c0-1.307,0.6-2.358,2.132-2.358C135.36,117.349,135.96,118.399,135.96,119.707z M132.349,119.707v2.947
			c0,1.2,0.567,1.725,1.478,1.725c0.911,0,1.479-0.525,1.479-1.725v-2.947c0-1.2-0.568-1.736-1.479-1.736
			C132.916,117.971,132.349,118.507,132.349,119.707z"/>
		<path fill="#8DC227" d="M138.058,122.278c0,0,0-4.725,0-4.747c0-0.107,0.107-0.107,0.107-0.107h0.451c0,0,0.096,0,0.096,0.107
			v4.747c0,1.436,0.547,2.1,1.458,2.1c0.911,0,1.457-0.664,1.457-2.1v-4.747c0-0.107,0.097-0.107,0.097-0.107h0.45
			c0,0,0.107,0,0.107,0.107c0,0.021,0,4.747,0,4.747c0,1.457-0.578,2.722-2.11,2.722C138.636,125,138.058,123.736,138.058,122.278z"
			/>
		<path fill="#8DC227" d="M148.182,117.532c0,0,0-0.107,0.108-0.107h0.439c0,0,0.107,0,0.107,0.107v7.286c0,0,0,0.107-0.107,0.107
			h-0.686c0,0-0.097,0-0.151-0.107l-2.807-6.611l0.053,6.611c0,0,0,0.107-0.106,0.107h-0.439c0,0-0.108,0-0.108-0.107v-7.286
			c0,0,0-0.107,0.108-0.107h0.686c0,0,0.096,0,0.15,0.107l2.808,6.611L148.182,117.532z"/>
		<path fill="#8DC227" d="M155.232,119.225l-0.419,0.107c-0.064,0.032-0.139-0.011-0.15-0.075c-0.086-0.783-0.557-1.286-1.425-1.286
			c-1.017,0-1.489,0.525-1.489,1.736v2.947c0,1.211,0.472,1.725,1.489,1.725c0.911,0,1.458-0.525,1.458-1.725
			c0-0.107,0.097-0.107,0.097-0.107h0.45c0,0,0.107,0,0.107,0.107c0,1.307-0.578,2.347-2.111,2.347
			c-1.414,0-2.142-0.975-2.142-2.347v-2.947c0-1.372,0.729-2.358,2.142-2.358c1.33,0,1.919,0.782,2.057,1.736
			C155.306,119.139,155.295,119.203,155.232,119.225z"/>
		<path fill="#8DC227" d="M158.102,124.818c0,0.107-0.096,0.107-0.096,0.107h-0.45c0,0-0.108,0-0.108-0.107v-7.286
			c0-0.107,0.097-0.107,0.097-0.107h0.45c0,0,0.107,0,0.107,0.107V124.818z"/>
		<path fill="#8DC227" d="M160.47,124.925v-7.393c0-0.107,0.097-0.107,0.097-0.107h0.45c0,0,0.107,0,0.107,0.107v6.772h2.487
			c0.107,0,0.107,0.097,0.107,0.097v0.418c0,0,0,0.107-0.107,0.107H160.47z"/>
	</g>
</g>
</svg>
